<mxfile host="app.diagrams.net" modified="2022-09-05T04:38:30.692Z" agent="5.0 (Windows NT 10.0; Win64; x64) AppleWebKit/537.36 (KHTML, like Gecko) Chrome/105.0.0.0 Safari/537.36 Edg/105.0.1343.27" etag="6QY6YokQpm13x81k6fo3" version="20.2.8" type="github">
  <diagram id="C5RBs43oDa-KdzZeNtuy" name="Page-1">
    <mxGraphModel dx="1038" dy="539" grid="1" gridSize="10" guides="1" tooltips="1" connect="1" arrows="1" fold="1" page="1" pageScale="1" pageWidth="827" pageHeight="1169" math="0" shadow="0">
      <root>
        <mxCell id="WIyWlLk6GJQsqaUBKTNV-0" />
        <mxCell id="WIyWlLk6GJQsqaUBKTNV-1" parent="WIyWlLk6GJQsqaUBKTNV-0" />
        <mxCell id="KA5u1GvjxXPXZfZGoN57-1" value="" style="edgeStyle=orthogonalEdgeStyle;rounded=0;orthogonalLoop=1;jettySize=auto;html=1;" edge="1" parent="WIyWlLk6GJQsqaUBKTNV-1" source="WIyWlLk6GJQsqaUBKTNV-3" target="KA5u1GvjxXPXZfZGoN57-0">
          <mxGeometry relative="1" as="geometry" />
        </mxCell>
        <mxCell id="WIyWlLk6GJQsqaUBKTNV-3" value="Hangman Game" style="rounded=1;whiteSpace=wrap;html=1;fontSize=12;glass=0;strokeWidth=1;shadow=0;fillColor=#dae8fc;strokeColor=#6c8ebf;gradientColor=#7ea6e0;" parent="WIyWlLk6GJQsqaUBKTNV-1" vertex="1">
          <mxGeometry x="354" y="20" width="120" height="40" as="geometry" />
        </mxCell>
        <mxCell id="KA5u1GvjxXPXZfZGoN57-3" value="" style="edgeStyle=orthogonalEdgeStyle;rounded=0;orthogonalLoop=1;jettySize=auto;html=1;strokeColor=default;endArrow=block;endFill=1;" edge="1" parent="WIyWlLk6GJQsqaUBKTNV-1" source="KA5u1GvjxXPXZfZGoN57-0" target="KA5u1GvjxXPXZfZGoN57-2">
          <mxGeometry relative="1" as="geometry" />
        </mxCell>
        <mxCell id="KA5u1GvjxXPXZfZGoN57-11" value="" style="edgeStyle=orthogonalEdgeStyle;rounded=0;orthogonalLoop=1;jettySize=auto;html=1;strokeColor=default;endArrow=block;endFill=1;" edge="1" parent="WIyWlLk6GJQsqaUBKTNV-1" source="KA5u1GvjxXPXZfZGoN57-0" target="KA5u1GvjxXPXZfZGoN57-10">
          <mxGeometry relative="1" as="geometry" />
        </mxCell>
        <mxCell id="KA5u1GvjxXPXZfZGoN57-0" value="Generate a random Word" style="rounded=1;whiteSpace=wrap;html=1;glass=0;strokeWidth=1;shadow=0;fillColor=#e51400;fontColor=#ffffff;strokeColor=#B20000;" vertex="1" parent="WIyWlLk6GJQsqaUBKTNV-1">
          <mxGeometry x="354" y="130" width="120" height="60" as="geometry" />
        </mxCell>
        <mxCell id="KA5u1GvjxXPXZfZGoN57-2" value="Generate as many blank letters as the word" style="rounded=1;whiteSpace=wrap;html=1;glass=0;strokeWidth=1;shadow=0;fillColor=#e51400;fontColor=#ffffff;strokeColor=#B20000;" vertex="1" parent="WIyWlLk6GJQsqaUBKTNV-1">
          <mxGeometry x="160" y="130" width="120" height="60" as="geometry" />
        </mxCell>
        <mxCell id="KA5u1GvjxXPXZfZGoN57-10" value="Ask the User to guess the letter" style="shape=process;whiteSpace=wrap;html=1;backgroundOutline=1;fillColor=#e3c800;strokeColor=#B09500;rounded=1;glass=0;strokeWidth=1;shadow=0;fontColor=#000000;" vertex="1" parent="WIyWlLk6GJQsqaUBKTNV-1">
          <mxGeometry x="354" y="270" width="120" height="60" as="geometry" />
        </mxCell>
        <mxCell id="KA5u1GvjxXPXZfZGoN57-62" style="edgeStyle=none;orthogonalLoop=1;jettySize=auto;html=1;exitX=0.5;exitY=0;exitDx=0;exitDy=0;entryX=0.5;entryY=1;entryDx=0;entryDy=0;strokeColor=default;fontSize=10;startArrow=block;startFill=1;endArrow=none;endFill=0;" edge="1" parent="WIyWlLk6GJQsqaUBKTNV-1" source="KA5u1GvjxXPXZfZGoN57-13" target="KA5u1GvjxXPXZfZGoN57-10">
          <mxGeometry relative="1" as="geometry" />
        </mxCell>
        <mxCell id="KA5u1GvjxXPXZfZGoN57-64" value="" style="edgeStyle=none;orthogonalLoop=1;jettySize=auto;html=1;strokeColor=default;fontSize=10;startArrow=block;startFill=1;endArrow=block;endFill=1;" edge="1" parent="WIyWlLk6GJQsqaUBKTNV-1" source="KA5u1GvjxXPXZfZGoN57-13" target="KA5u1GvjxXPXZfZGoN57-18">
          <mxGeometry relative="1" as="geometry" />
        </mxCell>
        <mxCell id="KA5u1GvjxXPXZfZGoN57-13" value="Is the guessed letter in the word?" style="rhombus;whiteSpace=wrap;html=1;fillColor=#1ba1e2;strokeColor=#006EAF;rounded=1;glass=0;strokeWidth=1;shadow=0;fontColor=#ffffff;" vertex="1" parent="WIyWlLk6GJQsqaUBKTNV-1">
          <mxGeometry x="344" y="400" width="140" height="150" as="geometry" />
        </mxCell>
        <mxCell id="KA5u1GvjxXPXZfZGoN57-16" value="NO" style="text;html=1;align=center;verticalAlign=middle;resizable=0;points=[];autosize=1;strokeColor=#B20000;fillColor=#e51400;fontColor=#ffffff;" vertex="1" parent="WIyWlLk6GJQsqaUBKTNV-1">
          <mxGeometry x="500" y="445" width="40" height="30" as="geometry" />
        </mxCell>
        <mxCell id="KA5u1GvjxXPXZfZGoN57-18" value="YES" style="text;html=1;align=center;verticalAlign=middle;resizable=0;points=[];autosize=1;strokeColor=#3A5431;fillColor=#6d8764;fontColor=#ffffff;" vertex="1" parent="WIyWlLk6GJQsqaUBKTNV-1">
          <mxGeometry x="280" y="445" width="50" height="30" as="geometry" />
        </mxCell>
        <mxCell id="KA5u1GvjxXPXZfZGoN57-61" style="edgeStyle=none;orthogonalLoop=1;jettySize=auto;html=1;exitX=0.5;exitY=0;exitDx=0;exitDy=0;entryX=0;entryY=0.5;entryDx=0;entryDy=0;strokeColor=default;fontSize=10;startArrow=block;startFill=1;endArrow=none;endFill=0;" edge="1" parent="WIyWlLk6GJQsqaUBKTNV-1" source="KA5u1GvjxXPXZfZGoN57-20" target="KA5u1GvjxXPXZfZGoN57-13">
          <mxGeometry relative="1" as="geometry">
            <Array as="points">
              <mxPoint x="260" y="475" />
            </Array>
          </mxGeometry>
        </mxCell>
        <mxCell id="KA5u1GvjxXPXZfZGoN57-20" value="Replace the blank for the corresponding letter" style="rounded=0;whiteSpace=wrap;html=1;labelBackgroundColor=none;strokeColor=#B20000;fillColor=#e51400;fontColor=#ffffff;" vertex="1" parent="WIyWlLk6GJQsqaUBKTNV-1">
          <mxGeometry x="200" y="640" width="120" height="60" as="geometry" />
        </mxCell>
        <mxCell id="KA5u1GvjxXPXZfZGoN57-60" style="edgeStyle=none;orthogonalLoop=1;jettySize=auto;html=1;exitX=0.5;exitY=0;exitDx=0;exitDy=0;entryX=1;entryY=0.5;entryDx=0;entryDy=0;strokeColor=default;fontSize=10;startArrow=block;startFill=1;endArrow=none;endFill=0;" edge="1" parent="WIyWlLk6GJQsqaUBKTNV-1" source="KA5u1GvjxXPXZfZGoN57-21" target="KA5u1GvjxXPXZfZGoN57-13">
          <mxGeometry relative="1" as="geometry">
            <Array as="points">
              <mxPoint x="550" y="475" />
            </Array>
          </mxGeometry>
        </mxCell>
        <mxCell id="KA5u1GvjxXPXZfZGoN57-21" value="Lose one life" style="rounded=0;whiteSpace=wrap;html=1;labelBackgroundColor=none;strokeColor=#B20000;fillColor=#e51400;fontColor=#ffffff;" vertex="1" parent="WIyWlLk6GJQsqaUBKTNV-1">
          <mxGeometry x="490" y="640" width="120" height="60" as="geometry" />
        </mxCell>
        <mxCell id="KA5u1GvjxXPXZfZGoN57-46" value="" style="orthogonalLoop=1;jettySize=auto;html=1;strokeColor=default;fontSize=10;endArrow=block;endFill=1;" edge="1" parent="WIyWlLk6GJQsqaUBKTNV-1" source="KA5u1GvjxXPXZfZGoN57-22">
          <mxGeometry relative="1" as="geometry">
            <mxPoint x="480" y="300" as="targetPoint" />
            <Array as="points">
              <mxPoint x="790" y="830" />
              <mxPoint x="790" y="300" />
            </Array>
          </mxGeometry>
        </mxCell>
        <mxCell id="KA5u1GvjxXPXZfZGoN57-67" style="edgeStyle=none;orthogonalLoop=1;jettySize=auto;html=1;exitX=0.5;exitY=0;exitDx=0;exitDy=0;entryX=0.5;entryY=1;entryDx=0;entryDy=0;strokeColor=default;fontSize=10;startArrow=block;startFill=1;endArrow=none;endFill=0;" edge="1" parent="WIyWlLk6GJQsqaUBKTNV-1" source="KA5u1GvjxXPXZfZGoN57-22" target="KA5u1GvjxXPXZfZGoN57-21">
          <mxGeometry relative="1" as="geometry" />
        </mxCell>
        <mxCell id="KA5u1GvjxXPXZfZGoN57-22" value="&lt;div style=&quot;&quot;&gt;&lt;span style=&quot;background-color: initial;&quot;&gt;&lt;font style=&quot;font-size: 10px;&quot;&gt;Have the user run out of lifes?&lt;/font&gt;&lt;/span&gt;&lt;/div&gt;" style="rhombus;whiteSpace=wrap;html=1;rounded=0;labelBackgroundColor=none;align=center;fillColor=#1ba1e2;fontColor=#ffffff;strokeColor=#006EAF;" vertex="1" parent="WIyWlLk6GJQsqaUBKTNV-1">
          <mxGeometry x="474" y="780" width="150" height="100" as="geometry" />
        </mxCell>
        <mxCell id="KA5u1GvjxXPXZfZGoN57-48" value="" style="edgeStyle=none;orthogonalLoop=1;jettySize=auto;html=1;strokeColor=default;fontSize=10;endArrow=none;endFill=0;startArrow=block;startFill=1;" edge="1" parent="WIyWlLk6GJQsqaUBKTNV-1" source="KA5u1GvjxXPXZfZGoN57-47" target="KA5u1GvjxXPXZfZGoN57-20">
          <mxGeometry relative="1" as="geometry" />
        </mxCell>
        <mxCell id="KA5u1GvjxXPXZfZGoN57-50" value="" style="edgeStyle=none;orthogonalLoop=1;jettySize=auto;html=1;strokeColor=default;fontSize=10;endArrow=block;endFill=1;exitX=0;exitY=0.5;exitDx=0;exitDy=0;" edge="1" parent="WIyWlLk6GJQsqaUBKTNV-1" source="KA5u1GvjxXPXZfZGoN57-47">
          <mxGeometry relative="1" as="geometry">
            <mxPoint x="40" y="840" as="sourcePoint" />
            <mxPoint x="350" y="300" as="targetPoint" />
            <Array as="points">
              <mxPoint x="40" y="830" />
              <mxPoint x="50" y="300" />
            </Array>
          </mxGeometry>
        </mxCell>
        <mxCell id="KA5u1GvjxXPXZfZGoN57-47" value="&lt;div style=&quot;&quot;&gt;&lt;span style=&quot;background-color: initial;&quot;&gt;&lt;font style=&quot;font-size: 10px;&quot;&gt;Are all the blanks filled?&lt;/font&gt;&lt;/span&gt;&lt;/div&gt;" style="rhombus;whiteSpace=wrap;html=1;rounded=0;labelBackgroundColor=none;align=center;fillColor=#1ba1e2;fontColor=#ffffff;strokeColor=#006EAF;" vertex="1" parent="WIyWlLk6GJQsqaUBKTNV-1">
          <mxGeometry x="185" y="780" width="150" height="100" as="geometry" />
        </mxCell>
        <mxCell id="KA5u1GvjxXPXZfZGoN57-51" value="NO" style="text;html=1;align=center;verticalAlign=middle;resizable=0;points=[];autosize=1;strokeColor=#B20000;fillColor=#e51400;fontColor=#ffffff;" vertex="1" parent="WIyWlLk6GJQsqaUBKTNV-1">
          <mxGeometry x="680" y="800" width="40" height="30" as="geometry" />
        </mxCell>
        <mxCell id="KA5u1GvjxXPXZfZGoN57-52" value="NO" style="text;html=1;align=center;verticalAlign=middle;resizable=0;points=[];autosize=1;strokeColor=#B20000;fillColor=#e51400;fontColor=#ffffff;" vertex="1" parent="WIyWlLk6GJQsqaUBKTNV-1">
          <mxGeometry x="100" y="800" width="40" height="30" as="geometry" />
        </mxCell>
        <mxCell id="KA5u1GvjxXPXZfZGoN57-56" style="edgeStyle=none;orthogonalLoop=1;jettySize=auto;html=1;entryX=0.5;entryY=1;entryDx=0;entryDy=0;strokeColor=default;fontSize=10;endArrow=none;endFill=0;startArrow=block;startFill=1;" edge="1" parent="WIyWlLk6GJQsqaUBKTNV-1" target="KA5u1GvjxXPXZfZGoN57-47">
          <mxGeometry relative="1" as="geometry">
            <mxPoint x="340" y="920" as="sourcePoint" />
            <Array as="points">
              <mxPoint x="260" y="920" />
            </Array>
          </mxGeometry>
        </mxCell>
        <mxCell id="KA5u1GvjxXPXZfZGoN57-57" style="edgeStyle=none;orthogonalLoop=1;jettySize=auto;html=1;entryX=0.5;entryY=1;entryDx=0;entryDy=0;strokeColor=default;fontSize=10;startArrow=block;startFill=1;endArrow=none;endFill=0;" edge="1" parent="WIyWlLk6GJQsqaUBKTNV-1" target="KA5u1GvjxXPXZfZGoN57-22">
          <mxGeometry relative="1" as="geometry">
            <mxPoint x="470" y="920" as="sourcePoint" />
            <Array as="points">
              <mxPoint x="549" y="920" />
            </Array>
          </mxGeometry>
        </mxCell>
        <mxCell id="KA5u1GvjxXPXZfZGoN57-63" value="Game Over" style="shape=hexagon;perimeter=hexagonPerimeter2;whiteSpace=wrap;html=1;fixedSize=1;labelBackgroundColor=none;strokeColor=#6c8ebf;fontSize=10;fillColor=#dae8fc;gradientColor=#7ea6e0;" vertex="1" parent="WIyWlLk6GJQsqaUBKTNV-1">
          <mxGeometry x="344" y="880" width="120" height="80" as="geometry" />
        </mxCell>
        <mxCell id="KA5u1GvjxXPXZfZGoN57-65" value="YES" style="text;html=1;align=center;verticalAlign=middle;resizable=0;points=[];autosize=1;strokeColor=#3A5431;fillColor=#6d8764;fontColor=#ffffff;" vertex="1" parent="WIyWlLk6GJQsqaUBKTNV-1">
          <mxGeometry x="270" y="890" width="50" height="30" as="geometry" />
        </mxCell>
        <mxCell id="KA5u1GvjxXPXZfZGoN57-66" value="YES" style="text;html=1;align=center;verticalAlign=middle;resizable=0;points=[];autosize=1;strokeColor=#3A5431;fillColor=#6d8764;fontColor=#ffffff;" vertex="1" parent="WIyWlLk6GJQsqaUBKTNV-1">
          <mxGeometry x="490" y="890" width="50" height="30" as="geometry" />
        </mxCell>
      </root>
    </mxGraphModel>
  </diagram>
</mxfile>
